PathFileType	4	(X/Y/Z)	C:\Git\1_current_projects\powerlifing_model\simulations\Athlete_03\25_03_31\Walking_01\markers_experimental.trc
DataRate	CameraRate	NumFrames	NumMarkers	Units	OrigDataRate	OrigDataStartFrame	OrigNumFrames
200.000000	200.000000	4	53	mm	200.000000	59	239
Frame#	Time	GLAB			RFHD			LFHD			C7			T6			SPINMOL			SPINM2			SPINM3			T12			BELTOL			BELT2			BELT3			SACROL			SACR2			SACR3			LTHOL			LTH2			LTH3			LSHAOL			LSHA2			LSHA3			LHEE			LTOE			LM5			RTHOL			RTH2			RTH3			RSHAOL			RSHA2			RSHA3			RHEE			RTOE			RM5			STRN			XIPH			LACR			LUAOL			LUA2			LUA3			LLAOL			LLA2			LLA3			LWRR			LWRU			RACR			RUAOL			RUA2			RUA3			RLAOL			RLA2			RLA3			RWRR			RWRU			
		X1	Y1	Z1	X2	Y2	Z2	X3	Y3	Z3	X4	Y4	Z4	X5	Y5	Z5	X6	Y6	Z6	X7	Y7	Z7	X8	Y8	Z8	X9	Y9	Z9	X10	Y10	Z10	X11	Y11	Z11	X12	Y12	Z12	X13	Y13	Z13	X14	Y14	Z14	X15	Y15	Z15	X16	Y16	Z16	X17	Y17	Z17	X18	Y18	Z18	X19	Y19	Z19	X20	Y20	Z20	X21	Y21	Z21	X22	Y22	Z22	X23	Y23	Z23	X24	Y24	Z24	X25	Y25	Z25	X26	Y26	Z26	X27	Y27	Z27	X28	Y28	Z28	X29	Y29	Z29	X30	Y30	Z30	X31	Y31	Z31	X32	Y32	Z32	X33	Y33	Z33	X34	Y34	Z34	X35	Y35	Z35	X36	Y36	Z36	X37	Y37	Z37	X38	Y38	Z38	X39	Y39	Z39	X40	Y40	Z40	X41	Y41	Z41	X42	Y42	Z42	X43	Y43	Z43	X44	Y44	Z44	X45	Y45	Z45	X46	Y46	Z46	X47	Y47	Z47	X48	Y48	Z48	X49	Y49	Z49	X50	Y50	Z50	X51	Y51	Z51	X52	Y52	Z52	X53	Y53	Z53	

60	0.295	265.2131958007813	1607.711303710938	105.9882507324219	330.4272766113282	1631.804321289063	155.9786376953125	192.9170379638672	1630.228149414063	151.3106842041016	258.9235534667969	1444.606811523438	331.3492431640626	255.0620574951172	1276.16162109375	391.0281372070314	233.5775451660157	1235.682006835938	399.7137451171876	283.4513244628907	1228.213745117188	403.2921447753907	249.374496459961	1171.574584960938	394.548065185547	251.3998260498047	1105.260009765625	368.9140014648438	239.7950592041016	1068.925537109375	404.5669250488282	290.1161499023438	1067.135864257813	400.9901428222657	261.8789978027344	1006.891845703125	407.5134887695314	233.5870361328126	956.823913574219	391.8845214843751	284.8462524414063	954.9378662109377	387.5881652832032	258.4301452636719	895.8626098632815	402.427703857422	39.71358108520509	675.6198730468751	257.6988220214844	73.87905120849611	609.5397949218751	283.7613220214844	45.75637817382813	616.9820556640626	244.1075744628907	31.01994705200196	419.3595581054689	314.2190551757813	62.23677444458009	412.0241088867189	387.212860107422	46.89198303222657	375.7699584960938	354.9838256835938	165.4440307617188	304.7036437988282	516.5010986328126	147.0661773681641	100.2359313964844	435.4214172363282	60.84981918334962	130.8058624267578	488.379364013672	426.2147827148439	685.1322021484376	278.8183898925782	429.018768310547	636.0889892578126	215.9134368896485	415.270721435547	626.5590209960939	262.9543151855469	406.8656616210939	335.3140869140626	273.2485656738282	401.9060974121095	264.4821777343751	238.469223022461	391.7525939941407	276.3630981445313	286.0249328613282	281.0174255371094	63.90364456176759	321.0642089843751	289.1010131835938	45.34878540039063	106.5513076782227	389.8814392089845	37.68619918823243	160.9049530029297	253.4175720214844	1342.675170898438	161.1309051513672	249.9790191650391	1198.889404296875	145.2349243164063	82.6823196411133	1408.592651367188	257.6129760742188	-20.09328842163086	1256.435791015625	259.2733154296876	-41.61311721801759	1195.109497070313	269.9717712402344	-19.24365997314453	1200.730834960938	224.9361114501954	-74.53771972656251	996.7415771484377	218.1332397460938	-58.91054916381837	924.022888183594	244.3957977294922	-76.0727996826172	938.1204833984377	199.7268676757813	-82.0841522216797	842.331970214844	159.365951538086	-16.41236877441407	851.0931396484377	116.2582931518555	425.1802368164064	1393.748657226563	241.7760162353516	524.1047363281251	1242.8115234375	249.8101501464844	526.6157836914064	1182.258056640625	222.3574981689454	545.4257202148439	1183.879028320313	270.4438781738282	568.2573242187501	966.4942016601565	216.4747009277344	585.5003051757814	921.9329223632815	151.8145904541016	568.0228271484376	906.9387817382815	196.7249298095704	573.2155761718751	831.6748657226565	145.7830810546875	497.996307373047	824.6629638671877	113.6882019042969	
61	0.3	265.2011718750001	1608.365112304688	99.66927337646487	330.4071350097657	1632.522338867188	149.6630096435547	192.8878021240235	1630.863403320313	144.9726104736328	259.1381225585938	1445.293090820313	325.0989379882813	255.5430297851563	1276.809326171875	384.7226562500001	234.1060943603516	1236.324584960938	393.402069091797	283.9872131347657	1228.876831054688	396.9225463867189	249.9282989501954	1172.222412109375	388.2053222656251	251.9092254638672	1105.92041015625	362.5711975097657	240.4324188232422	1069.59033203125	398.4515075683595	290.7533569335938	1067.814575195313	394.8142089843751	262.5227355957032	1007.55224609375	401.2645874023439	233.4666595458985	957.674987792969	385.4413452148439	284.7414550781251	955.487731933594	381.4211425781251	257.8935241699219	896.598815917969	396.2527770996095	39.60300827026368	676.6600341796876	247.6805267333985	72.9418411254883	610.2399902343751	273.5809936523438	45.4536476135254	618.2000732421876	233.5093841552735	31.27995681762696	419.0469055175782	301.1632385253907	61.97318649291994	410.7971496582032	374.2710266113282	47.19542694091798	374.9616394042969	341.3673095703126	166.0340728759766	301.0451965332032	503.0552062988282	147.3269805908203	99.33838653564456	415.4946899414064	61.16273117065431	128.24951171875	469.4668273925782	426.3225708007814	686.2435302734376	275.6907043457032	429.4131164550782	636.4187011718751	213.418685913086	415.3510742187501	627.4751586914064	260.4835205078126	406.658416748047	335.9459533691407	273.1524658203126	402.1521301269532	264.9555053710938	238.6030578613282	391.4861450195314	277.0327758789063	286.0052185058594	280.8692321777344	64.53865051269533	320.9114685058594	289.1803588867188	45.38174057006837	106.493392944336	389.9301757812501	37.64909362792969	160.8995208740235	253.4054870605469	1343.42919921875	154.9213104248047	250.1140136718751	1199.639282226563	138.9638824462891	82.7546844482422	1409.196655273438	251.7386627197266	-19.97954750061036	1256.838623046875	254.2977142333985	-41.31320953369141	1195.516479492188	265.3835449218751	-19.2044792175293	1200.999633789063	220.2080383300782	-74.26277923583986	997.0031738281252	214.8052520751954	-58.54615020751955	924.466979980469	241.5944213867188	-75.84914398193361	938.2052001953127	196.8612823486329	-82.03540802001955	842.0927734375002	157.3442687988282	-16.48348999023438	850.4489746093752	113.9404525756836	425.2334289550782	1394.754028320313	235.2496032714844	524.4655151367189	1244.053466796875	242.3470153808594	526.9558715820314	1183.645751953125	214.5381164550782	545.9706420898439	1185.048095703125	262.5671997070313	568.6616210937501	967.9334106445315	206.5447235107422	585.3989868164064	924.1462402343752	141.2273864746094	568.1852416992189	908.630065917969	186.0565643310547	572.8640747070314	834.0244140625002	134.131332397461	497.4700317382814	827.546813964844	102.3736724853516	
62	0.305	265.1537780761719	1608.986694335938	93.36293792724611	330.3526916503907	1633.206298828125	143.3566436767578	192.8247528076172	1631.458984375	138.653564453125	259.3286132812501	1445.93603515625	318.8477783203126	255.9781646728516	1277.41943359375	378.4185180664063	234.5850982666016	1236.931274414063	387.0903625488282	284.4720153808594	1229.50146484375	390.5622558593751	250.4293212890626	1172.833251953125	381.8688354492188	252.3669891357422	1106.540771484375	356.2416992187501	240.9669494628907	1070.210815429688	392.3520507812501	291.2903442382813	1068.443359375	388.6845092773439	263.0525817871094	1008.164733886719	395.0398254394532	233.309066772461	958.4700317382815	379.0159912109376	284.5985107421876	955.9945068359377	375.2784118652344	257.3309326171876	897.2875976562502	390.1026916503907	39.48360443115235	677.7016601562501	237.7114562988282	71.94182586669923	610.9512329101564	263.5025329589844	45.13266754150391	619.4267578125001	223.0068054199219	31.53963851928712	418.520233154297	288.1789550781251	61.63714599609376	409.2714233398439	361.3981933593751	47.50021362304688	373.9024353027344	327.7651672363282	166.6166076660157	296.9879760742188	489.4685974121095	147.5772094726563	98.31507873535159	395.348358154297	61.47120285034181	125.494499206543	450.309295654297	426.4065551757814	687.3285522460939	272.5471801757813	429.800018310547	636.7420043945314	210.9126434326172	415.4203186035157	628.3806152343751	257.9879150390626	406.4414672851564	336.5927429199219	273.0005493164063	402.3615112304689	265.4473571777344	238.6846618652344	391.214080810547	277.7178649902344	285.9382629394532	280.7202453613282	65.20446014404298	320.7497253417969	289.2525939941407	45.40871047973634	106.4293060302735	389.9763793945314	37.61571502685548	160.8913116455078	253.3804321289063	1344.139892578125	148.7140655517578	250.2376556396485	1200.341674804688	132.6958465576172	82.80899047851564	1409.764892578125	245.8529357910157	-19.89532089233399	1257.22119140625	249.3386688232422	-41.03157424926759	1195.90966796875	260.8341064453126	-19.20452308654786	1201.24169921875	215.4941406250001	-74.01124572753908	997.238952636719	211.5143585205079	-58.17636871337892	924.8875122070315	238.8050842285157	-75.63834381103517	938.2691650390627	194.0181579589844	-81.98168182373048	841.8501586914065	155.3224639892578	-16.56564331054688	849.8253173828127	111.6178359985352	425.261688232422	1395.713623046875	228.7287902832032	524.8002319335939	1245.263549804688	234.9075012207032	527.2801513671876	1185.002319335938	206.7534942626954	546.4884643554689	1186.192138671875	254.7266235351563	569.0386352539064	969.3566894531252	196.6510925292969	585.2970581054689	926.367370605469	130.6924743652344	568.3129272460939	910.3214111328127	175.4128112792969	572.4837036132814	836.4003906250002	122.5027770996094	496.9328613281251	830.478454589844	91.05184936523439	
63	0.31	265.0720520019532	1609.574584960938	87.0673065185547	330.2647399902344	1633.854614257813	137.0579986572266	192.7287902832032	1632.0126953125	132.3516693115235	259.4947509765626	1446.534423828125	312.5932312011719	256.3676147460938	1277.991577148438	372.1150207519532	235.0146026611329	1237.50146484375	380.7782897949219	284.9057922363282	1230.087158203125	384.2117614746095	250.8778686523438	1173.406372070313	375.5389709472657	252.7728881835938	1107.12060546875	349.9264526367188	241.3975982666016	1070.787719726563	386.2674255371095	291.7261657714844	1069.022583007813	382.6009826660157	263.4671020507813	1008.729919433594	388.8407287597657	233.1197662353516	959.2073364257815	372.6096496582032	284.4230651855469	956.4619750976565	369.1597900390626	256.7550354003907	897.9285888671877	383.9739685058594	39.35862350463868	678.7392578125001	227.8036193847657	70.88660430908205	611.6643066406251	253.5267028808594	44.79738235473634	620.6549682617189	212.6082305908204	31.81063461303712	417.7947692871095	275.2698669433594	61.26399612426759	407.4601135253907	348.5859985351563	47.81362915039063	372.6085510253907	314.1804199218751	167.1830444335938	292.5451965332032	475.7279052734376	147.8173828125	97.18428039550784	374.9995727539063	61.77085876464845	122.5610275268555	430.909393310547	426.4690856933595	688.3818359375001	269.3763427734376	430.1781616210939	637.0579223632814	208.3780975341797	415.4815368652345	629.2708129882814	255.4534149169922	406.2207641601564	337.2496337890626	272.7663269042969	402.5250854492189	265.9538879394532	238.6894226074219	390.9449462890626	278.4139709472657	285.8030090332032	280.5718688964844	65.89883422851564	320.5797729492188	289.3173522949219	45.42853927612305	106.3601455688477	390.0194702148439	37.58665847778321	160.8798217773438	253.3431091308594	1344.804809570313	142.5072631835938	250.3517608642579	1200.99365234375	126.4304275512696	82.84533691406251	1410.293212890625	239.9538726806641	-19.83915138244629	1257.57958984375	244.3937530517579	-40.76665496826173	1196.285278320313	256.3194885253907	-19.24394226074219	1201.455322265625	210.7906799316407	-73.7833709716797	997.4443359375002	208.2557983398438	-57.80118942260744	925.2805786132815	236.0234069824219	-75.4412307739258	938.3074340820315	191.1937103271485	-81.92430114746095	841.5984497070315	153.2967681884766	-16.66163444519043	849.2166748046877	109.2848281860352	425.2659606933595	1396.624145507813	222.2130126953126	525.1088867187501	1246.437622070313	227.4907379150391	527.5889892578126	1186.322631835938	199.0030059814454	546.9793701171876	1187.306030273438	246.9215698242188	569.3892211914064	970.7605590820315	186.7930297851563	585.1928100585939	928.5909423828127	120.2087020874024	568.4072265625001	912.0098266601565	164.7948913574219	572.0743408203126	838.7976684570315	110.9008102416992	496.3831787109376	833.455261230469	79.72754669189455	
